PathFileType	4	(X/Y/Z)	C:\Users\86182\Documents\cortex\Trimmed_M3_H14.trc
DataRate	CameraRate	NumFrames	NumMarkers	Units	OrigDataRate	OrigDataStartFrame	OrigNumFrames
100.00	100.00	       154	2	mm	100.00	541	       901
Frame#	Time	gripper			box			
		X1	Y1	Z1	X2	Y2	Z2	

541	5.400	267.69806	173.12332	292.14740	268.07672	170.74612	155.99043	
542	5.410	267.69870	173.12350	292.14957	268.07526	170.74663	155.99150	
543	5.420	267.70016	173.12343	292.15289	268.07303	170.74741	155.99315	
544	5.430	267.70258	173.12321	292.15717	268.07028	170.74841	155.99515	
545	5.440	267.70581	173.12294	292.16205	268.06738	170.74951	155.99722	
546	5.450	267.70956	173.12254	292.16693	268.06491	170.75043	155.99902	
547	5.460	267.71338	173.12196	292.17142	268.06345	170.75085	156.00014	
548	5.470	267.71667	173.12122	292.17477	268.06357	170.75055	156.00027	
549	5.480	267.71872	173.12038	292.17615	268.06537	170.74937	155.99934	
550	5.490	267.71890	173.11958	292.17499	268.06860	170.74750	155.99757	
551	5.500	267.71732	173.11897	292.17160	268.07257	170.74527	155.99529	
552	5.510	267.71460	173.11867	292.16699	268.07642	170.74324	155.99298	
553	5.520	267.71173	173.11862	292.16241	268.07901	170.74205	155.99129	
554	5.530	267.70956	173.11865	292.15900	268.07944	170.74223	155.99072	
555	5.540	267.70892	173.11853	292.15771	268.07733	170.74393	155.99152	
556	5.550	267.71045	173.11798	292.15942	268.07309	170.74681	155.99358	
557	5.560	267.71436	173.11693	292.16434	268.06754	170.75026	155.99649	
558	5.570	267.71991	173.11555	292.17181	268.06186	170.75359	155.99963	
559	5.580	267.72607	173.11415	292.18060	268.05710	170.75620	156.00241	
560	5.590	267.73187	173.11293	292.18942	268.05408	170.75775	156.00426	
561	5.600	267.73682	173.11197	292.19742	268.05313	170.75815	156.00491	
562	5.610	267.74069	173.11119	292.20386	268.05408	170.75755	156.00441	
563	5.620	267.74359	173.11057	292.20853	268.05637	170.75629	156.00308	
564	5.630	267.74573	173.11005	292.21152	268.05936	170.75470	156.00128	
565	5.640	267.74734	173.10968	292.21332	268.06274	170.75296	155.99919	
566	5.650	267.74863	173.10956	292.21417	268.06662	170.75101	155.99683	
567	5.660	267.74948	173.10973	292.21417	268.07101	170.74866	155.99420	
568	5.670	267.74985	173.11012	292.21344	268.07562	170.74602	155.99162	
569	5.680	267.74985	173.11075	292.21265	268.07956	170.74358	155.98955	
570	5.690	267.74979	173.11150	292.21249	268.08200	170.74193	155.98836	
571	5.700	267.74969	173.11229	292.21313	268.08282	170.74123	155.98808	
572	5.710	267.74942	173.11305	292.21414	268.08276	170.74106	155.98825	
573	5.720	267.74884	173.11365	292.21466	268.08270	170.74094	155.98840	
574	5.730	267.74768	173.11394	292.21384	268.08292	170.74072	155.98836	
575	5.740	267.74591	173.11386	292.21130	268.08310	170.74063	155.98824	
576	5.750	267.74374	173.11351	292.20731	268.08292	170.74091	155.98822	
577	5.760	267.74149	173.11308	292.20270	268.08231	170.74149	155.98836	
578	5.770	267.73926	173.11276	292.19830	268.08151	170.74222	155.98862	
579	5.780	267.73715	173.11266	292.19470	268.08044	170.74309	155.98900	
580	5.790	267.73538	173.11290	292.19232	268.07898	170.74425	155.98959	
581	5.800	267.73425	173.11349	292.19150	268.07709	170.74567	155.99037	
582	5.810	267.73407	173.11426	292.19226	268.07520	170.74710	155.99120	
583	5.820	267.73502	173.11493	292.19440	268.07358	170.74825	155.99196	
584	5.830	267.73688	173.11530	292.19720	268.07245	170.74886	155.99258	
585	5.840	267.73914	173.11531	292.19983	268.07205	170.74883	155.99303	
586	5.850	267.74118	173.11494	292.20151	268.07242	170.74818	155.99318	
587	5.860	267.74261	173.11429	292.20197	268.07346	170.74709	155.99297	
588	5.870	267.74329	173.11346	292.20145	268.07492	170.74579	155.99249	
589	5.880	267.74347	173.11258	292.20044	268.07626	170.74463	155.99203	
590	5.890	267.74338	173.11182	292.19940	268.07703	170.74390	155.99184	
591	5.900	267.74319	173.11131	292.19861	268.07703	170.74370	155.99197	
592	5.910	267.74298	173.11119	292.19824	268.07642	170.74397	155.99237	
593	5.920	267.74274	173.11143	292.19824	268.07559	170.74454	155.99278	
594	5.930	267.74228	173.11201	292.19839	268.07504	170.74506	155.99294	
595	5.940	267.74142	173.11285	292.19830	268.07486	170.74542	155.99284	
596	5.950	267.74005	173.11369	292.19757	268.07471	170.74576	155.99275	
597	5.960	267.73819	173.11427	292.19589	268.07428	170.74623	155.99281	
598	5.970	267.73602	173.11443	292.19324	268.07339	170.74695	155.99316	
599	5.980	267.73407	173.11412	292.19019	268.07214	170.74780	155.99374	
600	5.990	267.73291	173.11343	292.18762	268.07101	170.74854	155.99434	
601	6.000	267.73288	173.11253	292.18628	268.07013	170.74910	155.99480	
602	6.010	267.73410	173.11159	292.18677	268.06921	170.74971	155.99524	
603	6.020	267.73627	173.11066	292.18903	268.06805	170.75055	155.99576	
604	6.030	267.73901	173.10979	292.19281	268.06677	170.75146	155.99634	
605	6.040	267.74203	173.10904	292.19766	268.06567	170.75224	155.99683	
606	6.050	267.74503	173.10847	292.20306	268.06500	170.75275	155.99712	
607	6.060	267.74789	173.10814	292.20853	268.06488	170.75288	155.99710	
608	6.070	267.75061	173.10796	292.21384	268.06531	170.75269	155.99681	
609	6.080	267.75314	173.10791	292.21875	268.06619	170.75218	155.99632	
610	6.090	267.75534	173.10809	292.22290	268.06729	170.75148	155.99577	
611	6.100	267.75714	173.10847	292.22592	268.06818	170.75079	155.99542	
612	6.110	267.75833	173.10901	292.22745	268.06836	170.75038	155.99553	
613	6.120	267.75870	173.10970	292.22717	268.06763	170.75046	155.99623	
614	6.130	267.75787	173.11064	292.22495	268.06598	170.75107	155.99741	
615	6.140	267.75555	173.11189	292.22070	268.06360	170.75223	155.99893	
616	6.150	267.75174	173.11330	292.21472	268.06079	170.75374	156.00058	
617	6.160	267.74710	173.11444	292.20776	268.05798	170.75537	156.00218	
618	6.170	267.74261	173.11510	292.20120	268.05502	170.75700	156.00386	
619	6.180	267.73953	173.11528	292.19672	268.05161	170.75874	156.00600	
620	6.190	267.73898	173.11523	292.19617	268.04758	170.76051	156.00865	
621	6.200	267.74130	173.11513	292.20050	268.04352	170.76212	156.01151	
622	6.210	267.74603	173.11494	292.20917	268.04037	170.76320	156.01387	
623	6.220	267.75201	173.11461	292.22055	268.03906	170.76340	156.01503	
624	6.230	267.75806	173.11406	292.23242	268.04025	170.76244	156.01459	
625	6.240	267.76312	173.11333	292.24280	268.04416	170.76021	156.01239	
626	6.250	267.76682	173.11256	292.25055	268.05042	170.75684	156.00868	
627	6.260	267.76904	173.11203	292.25516	268.05811	170.75282	156.00404	
628	6.270	267.77002	173.11183	292.25674	268.06564	170.74899	155.99939	
629	6.280	267.77008	173.11198	292.25589	268.07150	170.74622	155.99564	
630	6.290	267.76959	173.11243	292.25357	268.07455	170.74507	155.99342	
631	6.300	267.76886	173.11307	292.25079	268.07455	170.74570	155.99295	
632	6.310	267.76819	173.11378	292.24854	268.07193	170.74774	155.99397	
633	6.320	267.76779	173.11449	292.24765	268.06757	170.75070	155.99611	
634	6.330	267.76791	173.11511	292.24854	268.06219	170.75400	155.99898	
635	6.340	267.76852	173.11569	292.25076	268.05646	170.75719	156.00227	
636	6.350	267.76935	173.11623	292.25345	268.05090	170.76001	156.00566	
637	6.360	267.77002	173.11667	292.25555	268.04596	170.76233	156.00888	
638	6.370	267.77011	173.11694	292.25629	268.04190	170.76404	156.01166	
639	6.380	267.76956	173.11702	292.25537	268.03925	170.76505	156.01357	
640	6.390	267.76849	173.11700	292.25305	268.03845	170.76521	156.01422	
641	6.400	267.76724	173.11703	292.25003	268.03979	170.76448	156.01344	
642	6.410	267.76614	173.11714	292.24686	268.04315	170.76285	156.01132	
643	6.420	267.76544	173.11725	292.24384	268.04810	170.76048	156.00815	
644	6.430	267.76541	173.11725	292.24146	268.05405	170.75761	156.00438	
645	6.440	267.76639	173.11707	292.24042	268.06024	170.75455	156.00050	
646	6.450	267.76865	173.11668	292.24133	268.06610	170.75159	155.99690	
647	6.460	267.77213	173.11621	292.24448	268.07101	170.74902	155.99391	
648	6.470	267.77640	173.11580	292.24951	268.07458	170.74715	155.99179	
649	6.480	267.78088	173.11557	292.25589	268.07645	170.74611	155.99069	
650	6.490	267.78482	173.11549	292.26263	268.07651	170.74596	155.99074	
651	6.500	267.78735	173.11542	292.26855	268.07474	170.74663	155.99199	
652	6.510	267.78806	173.11526	292.27295	268.07126	170.74809	155.99437	
653	6.520	267.78717	173.11504	292.27551	268.06644	170.75024	155.99760	
654	6.530	267.78543	173.11476	292.27658	268.06091	170.75285	156.00114	
655	6.540	267.78345	173.11444	292.27637	268.05566	170.75554	156.00436	
656	6.550	267.78143	173.11409	292.27487	268.05145	170.75792	156.00677	
657	6.560	267.77951	173.11383	292.27216	268.04874	170.75972	156.00810	
658	6.570	267.77756	173.11374	292.26825	268.04761	170.76082	156.00839	
659	6.580	267.77539	173.11389	292.26318	268.04776	170.76129	156.00787	
660	6.590	267.77295	173.11423	292.25714	268.04874	170.76128	156.00690	
661	6.600	267.77029	173.11473	292.25067	268.05014	170.76086	156.00578	
662	6.610	267.76767	173.11526	292.24432	268.05188	170.76007	156.00464	
663	6.620	267.76544	173.11574	292.23895	268.05383	170.75894	156.00357	
664	6.630	267.76392	173.11604	292.23529	268.05588	170.75752	156.00261	
665	6.640	267.76343	173.11607	292.23410	268.05780	170.75598	156.00186	
666	6.650	267.76422	173.11575	292.23578	268.05933	170.75459	156.00139	
667	6.660	267.76611	173.11508	292.24011	268.06012	170.75366	156.00131	
668	6.670	267.76877	173.11420	292.24637	268.06000	170.75336	156.00169	
669	6.680	267.77182	173.11333	292.25348	268.05914	170.75360	156.00233	
670	6.690	267.77505	173.11270	292.26056	268.05817	170.75417	156.00291	
671	6.700	267.77826	173.11250	292.26682	268.05762	170.75470	156.00302	
672	6.710	267.78113	173.11278	292.27155	268.05789	170.75504	156.00249	
673	6.720	267.78320	173.11339	292.27405	268.05890	170.75513	156.00140	
674	6.730	267.78424	173.11415	292.27402	268.06036	170.75496	156.00005	
675	6.740	267.78400	173.11497	292.27167	268.06216	170.75450	155.99860	
676	6.750	267.78256	173.11575	292.26767	268.06418	170.75377	155.99715	
677	6.760	267.78012	173.11636	292.26300	268.06607	170.75293	155.99588	
678	6.770	267.77713	173.11670	292.25861	268.06714	170.75244	155.99518	
679	6.780	267.77417	173.11679	292.25494	268.06653	170.75281	155.99553	
680	6.790	267.77164	173.11673	292.25232	268.06378	170.75421	155.99721	
681	6.800	267.76971	173.11659	292.25073	268.05920	170.75641	156.00012	
682	6.810	267.76843	173.11642	292.24994	268.05362	170.75894	156.00380	
683	6.820	267.76764	173.11617	292.24939	268.04803	170.76134	156.00755	
684	6.830	267.76709	173.11583	292.24847	268.04352	170.76318	156.01070	
685	6.840	267.76636	173.11542	292.24683	268.04092	170.76414	156.01256	
686	6.850	267.76508	173.11491	292.24414	268.04080	170.76405	156.01277	
687	6.860	267.76328	173.11432	292.24072	268.04309	170.76294	156.01134	
688	6.870	267.76129	173.11368	292.23724	268.04730	170.76100	156.00859	
689	6.880	267.75983	173.11305	292.23459	268.05261	170.75859	156.00510	
690	6.890	267.75937	173.11249	292.23361	268.05807	170.75615	156.00146	
691	6.900	267.76016	173.11197	292.23471	268.06281	170.75412	155.99826	
692	6.910	267.76202	173.11153	292.23758	268.06601	170.75291	155.99597	
693	6.920	267.76447	173.11121	292.24146	268.06732	170.75264	155.99484	
694	6.930	267.76709	173.11111	292.24573	268.06686	170.75320	155.99486	
